REM DIRINDEX 1\2\4,1\2\5,1\2\6,1\3\7,1\3\8
REM DIRNAME folder01,folder02,folder03,folder04,folder05,folder06,folder07,folder08
TITLE ""
FILE "038_Proficiency Test03.mp3" MP3
  TRACK 01 AUDIO
    TITLE "0:"
    INDEX 01 00:00:00
  TRACK 02 AUDIO
    TITLE "6:cjc128_2237"
    INDEX 01 00:00:23
  TRACK 03 AUDIO
    TITLE "0:"
    INDEX 01 00:02:45
  TRACK 04 AUDIO
    TITLE "6:cjc128_2238"
    INDEX 01 00:03:08
  TRACK 05 AUDIO
    TITLE "0:"
    INDEX 01 00:05:16
  TRACK 06 AUDIO
    TITLE "4:cjc128_2239"
    INDEX 01 00:05:73
  TRACK 07 AUDIO
    TITLE "0:"
    INDEX 01 00:08:66
  TRACK 08 AUDIO
    TITLE "5:cjc128_2240"
    INDEX 01 00:12:67
  TRACK 09 AUDIO
    TITLE "0:"
    INDEX 01 00:15:70
  TRACK 10 AUDIO
    TITLE "6:cjc128_2241"
    INDEX 01 00:16:67
  TRACK 11 AUDIO
    TITLE "0:"
    INDEX 01 00:18:74
  TRACK 12 AUDIO
    TITLE "4:cjc128_2242"
    INDEX 01 00:19:67
  TRACK 13 AUDIO
    TITLE "0:"
    INDEX 01 00:23:30
  TRACK 14 AUDIO
    TITLE "5:cjc128_2243"
    INDEX 01 00:27:14
  TRACK 15 AUDIO
    TITLE "0:"
    INDEX 01 00:30:20
  TRACK 16 AUDIO
    TITLE "6:cjc128_2244"
    INDEX 01 00:30:71
  TRACK 17 AUDIO
    TITLE "0:"
    INDEX 01 00:33:07
  TRACK 18 AUDIO
    TITLE "4:cjc128_2245"
    INDEX 01 00:34:00
  TRACK 19 AUDIO
    TITLE "0:"
    INDEX 01 00:36:72
  TRACK 20 AUDIO
    TITLE "5:cjc128_2246"
    INDEX 01 00:40:30
  TRACK 21 AUDIO
    TITLE "0:"
    INDEX 01 00:43:35
  TRACK 22 AUDIO
    TITLE "6:cjc128_2247"
    INDEX 01 00:44:07
  TRACK 23 AUDIO
    TITLE "0:"
    INDEX 01 00:46:19
  TRACK 24 AUDIO
    TITLE "4:cjc128_2248"
    INDEX 01 00:46:68
  TRACK 25 AUDIO
    TITLE "0:"
    INDEX 01 00:50:29
  TRACK 26 AUDIO
    TITLE "5:cjc128_2249"
    INDEX 01 00:55:04
  TRACK 27 AUDIO
    TITLE "0:"
    INDEX 01 00:59:12
  TRACK 28 AUDIO
    TITLE "6:cjc128_2250"
    INDEX 01 00:59:71
  TRACK 29 AUDIO
    TITLE "0:"
    INDEX 01 01:01:72
  TRACK 30 AUDIO
    TITLE "4:cjc128_2251"
    INDEX 01 01:02:73
  TRACK 31 AUDIO
    TITLE "0:"
    INDEX 01 01:06:47
  TRACK 32 AUDIO
    TITLE "5:cjc128_2252"
    INDEX 01 01:10:06
  TRACK 33 AUDIO
    TITLE "0:"
    INDEX 01 01:13:10
  TRACK 34 AUDIO
    TITLE "6:cjc128_2253"
    INDEX 01 01:13:57
  TRACK 35 AUDIO
    TITLE "0:"
    INDEX 01 01:15:68
  TRACK 36 AUDIO
    TITLE "4:cjc128_2254"
    INDEX 01 01:16:42
  TRACK 37 AUDIO
    TITLE "0:"
    INDEX 01 01:19:48
  TRACK 38 AUDIO
    TITLE "5:cjc128_2255"
    INDEX 01 01:23:16
  TRACK 39 AUDIO
    TITLE "0:"
    INDEX 01 01:26:13
  TRACK 40 AUDIO
    TITLE "6:cjc128_2256"
    INDEX 01 01:26:64
  TRACK 41 AUDIO
    TITLE "0:"
    INDEX 01 01:28:47
  TRACK 42 AUDIO
    TITLE "4:cjc128_2257"
    INDEX 01 01:29:27
  TRACK 43 AUDIO
    TITLE "0:"
    INDEX 01 01:33:01
  TRACK 44 AUDIO
    TITLE "5:cjc128_2258"
    INDEX 01 01:36:70
  TRACK 45 AUDIO
    TITLE "0:"
    INDEX 01 01:40:19
